<svg xmlns="http://www.w3.org/2000/svg" width="16" height="16" viewBox="0 0 16 16">
  <defs>
    <style>
      .cls-1 {
        fill: #bdbdbd;
        fill-rule: evenodd;
      }
    </style>
  </defs>
  <path id="Forma_1" data-name="Forma 1" class="cls-1" d="M69.992,19.627a0.774,0.774,0,0,1-.237.678L67.5,22.542a1.257,1.257,0,0,1-.4.288,1.637,1.637,0,0,1-.483.153l-0.1.009C66.463,23,66.39,23,66.3,23a7.812,7.812,0,0,1-1.042-.11,7.913,7.913,0,0,1-1.762-.542,14.805,14.805,0,0,1-2.363-1.3,17.626,17.626,0,0,1-2.812-2.373,18.583,18.583,0,0,1-1.965-2.237A15.973,15.973,0,0,1,55.1,14.466a10.633,10.633,0,0,1-.711-1.644,8.732,8.732,0,0,1-.322-1.271A4.2,4.2,0,0,1,54,10.712q0.017-.3.017-0.339a1.65,1.65,0,0,1,.152-0.483,1.27,1.27,0,0,1,.288-0.4l2.253-2.254A0.747,0.747,0,0,1,57.255,7a0.629,0.629,0,0,1,.39.127,1.175,1.175,0,0,1,.288.313l1.812,3.441a0.824,0.824,0,0,1,.085.593,1.055,1.055,0,0,1-.288.542l-0.83.831a0.283,0.283,0,0,0-.059.11,0.417,0.417,0,0,0-.025.127,3.06,3.06,0,0,0,.3.814,7.485,7.485,0,0,0,.627.992,11.029,11.029,0,0,0,1.2,1.347,11.227,11.227,0,0,0,1.355,1.212,7.837,7.837,0,0,0,.991.635,2.644,2.644,0,0,0,.61.246l0.212,0.043a0.4,0.4,0,0,0,.11-0.025,0.291,0.291,0,0,0,.11-0.059l0.965-.983a1.038,1.038,0,0,1,.711-0.271,0.887,0.887,0,0,1,.457.1H66.3l3.269,1.932A0.852,0.852,0,0,1,69.992,19.627Z" transform="translate(-54 -7)"/>
</svg>
