<svg xmlns="http://www.w3.org/2000/svg" width="70" height="67" viewBox="0 0 70 67">
  <defs>
    <style>
      .cls-1 {
        fill: #757575;
        fill-rule: evenodd;
      }
    </style>
  </defs>
  <path class="cls-1" d="M523.606,940.863a1.392,1.392,0,0,0,1.394-1.39V906.39a1.392,1.392,0,0,0-1.394-1.39H456.394A1.392,1.392,0,0,0,455,906.39v33.083a1.392,1.392,0,0,0,1.394,1.39h27.889v2.085H456.394a1.39,1.39,0,1,0,0,2.78h27.889V970.61A1.392,1.392,0,0,0,485.677,972h8.646a1.392,1.392,0,0,0,1.394-1.389V945.728h27.888a1.39,1.39,0,1,0,0-2.78H495.717v-2.085h27.889Zm-30.678,28.356h-5.856V945.728h5.856v23.491Zm0-26.271h-5.856v-2.085h5.856v2.085Zm-35.139-4.865v-30.3h64.422v30.3H457.789Zm37.928-28.774h-34.86a1.39,1.39,0,1,0,0,2.78h34.86A1.39,1.39,0,1,0,495.717,909.309Zm6.833,0H500.6a1.39,1.39,0,1,0,0,2.78h1.952A1.39,1.39,0,1,0,502.55,909.309Z" transform="translate(-455 -905)"/>
</svg>
