<svg xmlns="http://www.w3.org/2000/svg" width="34" height="55" viewBox="0 0 34 55">
  <defs>
    <style>
      .cls-1 {
        fill: #757575;
        fill-rule: evenodd;
      }
    </style>
  </defs>
  <path id="Forma_1" data-name="Forma 1" class="cls-1" d="M205.622,911H174.378A1.376,1.376,0,0,0,173,912.374v42.189a1.377,1.377,0,0,0,1.378,1.375h7.888v7.313h-1.334a1.375,1.375,0,1,0,0,2.749h18.136a1.375,1.375,0,1,0,0-2.749h-1.334v-7.313h7.888A1.377,1.377,0,0,0,207,954.563V912.374A1.376,1.376,0,0,0,205.622,911Zm-29.865,7.341h28.486V948.6H175.757V918.341Zm28.486-4.593v1.844H175.757v-1.844h28.486Zm-9.266,49.5h-9.955v-7.313h9.955v7.313Zm1.379-10.062h-20.6v-1.844h28.486v1.844h-7.887Z" transform="translate(-173 -911)"/>
</svg>
