<svg xmlns="http://www.w3.org/2000/svg" width="16" height="16" viewBox="0 0 16 16">
  <defs>
    <style>
      .cls-1 {
        fill: #bdbdbd;
        fill-rule: evenodd;
      }
    </style>
  </defs>
  <path class="cls-1" d="M963,7a8,8,0,1,0,8,8A8,8,0,0,0,963,7Zm0.552,8.978a0.453,0.453,0,0,1-.006.063,0.39,0.39,0,0,1-.007.048,0.283,0.283,0,0,1-.015.048,0.534,0.534,0,0,1-.02.057l0,0.01a0.5,0.5,0,0,1-.042.073l0,0a0.53,0.53,0,0,1-.058.07l-0.018.017a0.581,0.581,0,0,1-.058.048l-0.019.014a0.669,0.669,0,0,1-.083.045l-0.019.007a0.6,0.6,0,0,1-.075.023l-0.027.005a0.563,0.563,0,0,1-.1.01l-0.021,0a0.535,0.535,0,0,1-.094-0.011l-0.029-.009a0.611,0.611,0,0,1-.083-0.028l-0.009,0L959.7,15.022a0.553,0.553,0,0,1,.472-1l2.279,1.074V10.32a0.553,0.553,0,1,1,1.106,0v5.648h0S963.552,15.975,963.552,15.978Z" transform="translate(-955 -7)"/>
</svg>
