<svg xmlns="http://www.w3.org/2000/svg" width="16" height="16" viewBox="0 0 16 16">
  <defs>
    <style>
      .cls-1 {
        fill: #bdbdbd;
        fill-rule: evenodd;
      }
    </style>
  </defs>
  <path id="Forma_1" data-name="Forma 1" class="cls-1" d="M369.332,16.158A7.423,7.423,0,0,0,362,7.576a7.532,7.532,0,0,0-1.159.091,4.486,4.486,0,0,0-6.173,6.174,7.429,7.429,0,0,0,8.49,8.491A4.487,4.487,0,0,0,369.332,16.158Zm-3.808,2.218a3.078,3.078,0,0,1-1.378,1.059,5.485,5.485,0,0,1-2.142.382,5.118,5.118,0,0,1-2.452-.522,3.168,3.168,0,0,1-1.116-1A2.178,2.178,0,0,1,358,17.063a0.817,0.817,0,0,1,.265-0.608,0.945,0.945,0,0,1,.674-0.252,0.842,0.842,0,0,1,.563.2,1.505,1.505,0,0,1,.386.575,3.6,3.6,0,0,0,.408.731,1.61,1.61,0,0,0,.61.479,2.407,2.407,0,0,0,1.04.189,2.487,2.487,0,0,0,1.44-.382,1.109,1.109,0,0,0,.545-0.942,0.943,0.943,0,0,0-.291-0.723,1.941,1.941,0,0,0-.769-0.431q-0.477-.151-1.28-0.32a10.058,10.058,0,0,1-1.805-.549,2.935,2.935,0,0,1-1.163-.861,2.142,2.142,0,0,1-.432-1.363,2.218,2.218,0,0,1,.456-1.376,2.835,2.835,0,0,1,1.315-.924,5.721,5.721,0,0,1,2.011-.321,5.343,5.343,0,0,1,1.6.213,3.508,3.508,0,0,1,1.124.567,2.442,2.442,0,0,1,.655.745,1.64,1.64,0,0,1,.208.767,0.892,0.892,0,0,1-.265.627,0.875,0.875,0,0,1-.661.278,0.794,0.794,0,0,1-.549-0.17,2.152,2.152,0,0,1-.4-0.536,2.39,2.39,0,0,0-.645-0.806,1.982,1.982,0,0,0-1.2-.286,2.221,2.221,0,0,0-1.243.313,0.884,0.884,0,0,0-.465.739,0.709,0.709,0,0,0,.156.459,1.314,1.314,0,0,0,.439.338,3.034,3.034,0,0,0,.571.225c0.194,0.055.517,0.135,0.965,0.24q0.843,0.182,1.53.4a4.774,4.774,0,0,1,1.17.54,2.287,2.287,0,0,1,.761.81,2.438,2.438,0,0,1,.273,1.2A2.6,2.6,0,0,1,365.524,18.376Z" transform="translate(-354 -7)"/>
</svg>
