<svg xmlns="http://www.w3.org/2000/svg" width="16" height="12" viewBox="0 0 16 12">
  <defs>
    <style>
      .cls-1 {
        fill: #bdbdbd;
        fill-rule: evenodd;
      }
    </style>
  </defs>
  <path id="Forma_1" data-name="Forma 1" class="cls-1" d="M671,19a1.984,1.984,0,0,1-.257.962l-5.052-5.652,5-4.372A1.981,1.981,0,0,1,671,11v8Zm-8-3.664,6.953-6.084A1.974,1.974,0,0,0,669,9H657a1.974,1.974,0,0,0-.953.252Zm1.939-.368-1.61,1.409a0.5,0.5,0,0,1-.658,0l-1.61-1.409-5.116,5.725A1.977,1.977,0,0,0,657,21h12a1.977,1.977,0,0,0,1.055-.308Zm-9.627-5.031A1.981,1.981,0,0,0,655,11v8a1.973,1.973,0,0,0,.257.962l5.051-5.653Z" transform="translate(-655 -9)"/>
</svg>
