<svg xmlns="http://www.w3.org/2000/svg" width="12" height="16" viewBox="0 0 12 16">
  <defs>
    <style>
      .cls-1 {
        fill: #9e9e9e;
        fill-rule: evenodd;
      }
    </style>
  </defs>
  <path id="Forma_1" data-name="Forma 1" class="cls-1" d="M783,2332a5.951,5.951,0,0,0-6,5.89,5.6,5.6,0,0,0,.525,2.4,37.145,37.145,0,0,0,5.222,7.6,0.346,0.346,0,0,0,.506,0,37.145,37.145,0,0,0,5.222-7.6,5.6,5.6,0,0,0,.525-2.4A5.952,5.952,0,0,0,783,2332Zm0,8.95a3.061,3.061,0,1,1,3.116-3.06A3.09,3.09,0,0,1,783,2340.95Z" transform="translate(-777 -2332)"/>
</svg>
