<svg xmlns="http://www.w3.org/2000/svg" width="12" height="16" viewBox="0 0 12 16">
  <defs>
    <style>
      .cls-1 {
        fill: #fafafa;
        fill-rule: evenodd;
      }
    </style>
  </defs>
  <path id="Forma_1" data-name="Forma 1" class="cls-1" d="M1088.37,61.967l-4.15-3.466a2.434,2.434,0,0,0-1.39-.5h-4.77a1.056,1.056,0,0,0-1.06,1.057c0,0.14.01,13.968,0.01,14.04a0.849,0.849,0,0,0,.88.9L1087.98,74a1.049,1.049,0,0,0,1.02-1.07V63.355A1.981,1.981,0,0,0,1088.37,61.967Zm-10.31-3.922h0Zm7.62,10.511-2.39,3.463a0.342,0.342,0,0,1-.28.156,0.329,0.329,0,0,1-.28-0.156l-2.39-3.463a0.3,0.3,0,0,1,.26-0.489h1.4V64.634a0.413,0.413,0,0,1,.4-0.415h1.22a0.428,0.428,0,0,1,.41.415v3.434h1.39a0.307,0.307,0,0,1,.29.158A0.329,0.329,0,0,1,1085.68,68.556Zm-1.48-5.5a0.671,0.671,0,0,1-.7-0.736V59.386l4.55,3.671h-3.85Z" transform="translate(-1077 -58)"/>
</svg>
